<svg width="43" height="45" viewBox="0 0 43 45" fill="none" xmlns="http://www.w3.org/2000/svg">
<path d="M18 28.8706C18 26.7482 19.7672 25 21.9127 25C24.0581 25 25.8253 26.7482 25.8253 28.8706C25.8253 29.7504 25.4613 30.5155 24.9558 31.1687V33.1712C24.9558 34.8167 23.576 36.1816 21.9127 36.1816C20.2493 36.1816 18.8695 34.8167 18.8695 33.1712V31.1687C18.364 30.5155 18 29.7504 18 28.8706Z" stroke="#F0380F" stroke-width="3"/>
<rect x="1.5" y="17.5" width="40" height="26" rx="2.5" stroke="#F0380F" stroke-width="3"/>
<path d="M10.5 12.5C10.5 6.42487 15.4249 1.5 21.5 1.5C27.5751 1.5 32.5 6.42487 32.5 12.5V17.5H10.5V12.5Z" stroke="#F0380F" stroke-width="3"/>
</svg>
