<svg width="133" height="31" viewBox="0 0 133 31" fill="none" xmlns="http://www.w3.org/2000/svg">
<path d="M130.29 8.42C130.19 8.29 130.11 8.2 130.05 8.15C129.99 8.1 129.91 8.06 129.81 8.02C130.11 7.98 130.34 7.87 130.5 7.69C130.66 7.51 130.75 7.29 130.75 7.04C130.75 6.86 130.71 6.69 130.62 6.54C130.53 6.39 130.42 6.28 130.3 6.2C130.17 6.13 129.99 6.05 129.75 6.03C129.67 6.03 129.3 6 128.64 6H127.93V9.6H128.73V8.2H128.82C129.02 8.2 129.18 8.21 129.31 8.31C129.44 8.41 129.6 8.65 129.8 9.03L130.09 9.6H130.96L130.55 8.87C130.41 8.62 130.32 8.46 130.29 8.42ZM129.68 7.54C129.58 7.57 129.33 7.6 128.92 7.6H128.72V6.6H128.92C129.32 6.6 129.57 6.63 129.68 6.66C129.78 6.69 129.86 6.75 129.92 6.83C129.98 6.9 130 6.99 130 7.09C130 7.19 129.97 7.29 129.91 7.37C129.86 7.44 129.78 7.5 129.68 7.54ZM132.25 6.14C131.96 5.61 131.55 5.21 131.03 4.93C130.51 4.65 129.98 4.51 129.41 4.51C128.85 4.51 128.31 4.65 127.79 4.93C127.27 5.21 126.87 5.62 126.57 6.14C126.27 6.67 126.13 7.22 126.13 7.79C126.13 8.36 126.27 8.91 126.56 9.43C126.85 9.95 127.25 10.35 127.77 10.64C128.29 10.93 128.83 11.08 129.4 11.08C129.97 11.08 130.51 10.93 131.03 10.64C131.55 10.35 131.95 9.94 132.24 9.43C132.53 8.91 132.67 8.36 132.67 7.79C132.69 7.22 132.54 6.67 132.25 6.14ZM131.7 9.11C131.47 9.53 131.14 9.86 130.73 10.09C130.31 10.32 129.88 10.44 129.42 10.44C128.96 10.44 128.53 10.32 128.11 10.09C127.69 9.85 127.37 9.53 127.14 9.11C126.91 8.69 126.79 8.25 126.79 7.8C126.79 7.33 126.91 6.89 127.15 6.47C127.39 6.05 127.71 5.72 128.13 5.5C128.54 5.27 128.98 5.16 129.43 5.16C129.88 5.16 130.31 5.27 130.73 5.5C131.15 5.73 131.47 6.05 131.71 6.47C131.95 6.89 132.07 7.34 132.07 7.8C132.05 8.25 131.94 8.69 131.7 9.11ZM41.23 4.51C34.22 4.51 28.53 10.23 28.53 17.26C28.53 24.29 34.23 30.01 41.23 30.01C48.23 30.01 53.93 24.29 53.93 17.26C53.94 10.22 48.24 4.51 41.23 4.51ZM41.23 23.63C37.73 23.63 34.88 20.77 34.88 17.26C34.88 13.74 37.73 10.89 41.23 10.89C44.73 10.89 47.58 13.75 47.58 17.26C47.59 20.77 44.73 23.63 41.23 23.63ZM55.74 29.33H62.09V0.97H55.74V29.33ZM76.6 4.51C69.59 4.51 63.9 10.23 63.9 17.26C63.9 24.28 69.6 30 76.6 30C83.61 30 89.3 24.28 89.3 17.25C89.31 10.22 83.61 4.51 76.6 4.51ZM76.6 23.63C73.1 23.63 70.25 20.77 70.25 17.26C70.25 13.74 73.1 10.89 76.6 10.89C80.1 10.89 82.95 13.75 82.95 17.26C82.95 20.77 80.11 23.63 76.6 23.63ZM97.46 5.75H91.11V29.33H97.46V17.89C97.46 14.37 100.31 11.52 103.81 11.52V5.14C101.5 5.14 99.33 6.04 97.46 7.5V5.75ZM105.49 5.11V11.48H113.99L103.83 29.33H124.55V22.96H114.78L124.94 5.11H105.49ZM14.95 6.37C18.13 6.37 20.9 8.11 22.39 10.69L27.89 7.5C25.3 3.02 20.48 0 14.95 0C6.69 0 0 6.72 0 15C0 23.28 6.69 30 14.95 30C20.48 30 25.3 26.98 27.89 22.49L22.39 19.3C20.9 21.88 18.13 23.62 14.95 23.62C10.21 23.62 6.35 19.75 6.35 14.99C6.35 10.24 10.21 6.37 14.95 6.37Z" fill="#18181B"/>
</svg>
